<svg width="800" height="400" viewBox="0 0 800 400" xmlns="http://www.w3.org/2000/svg">
    <defs>
        <linearGradient id="grad1" x1="0%" y1="0%" x2="100%" y2="0%">
            <stop offset="0%" style="stop-color:#004b7c;stop-opacity:1" />
            <stop offset="50%" style="stop-color:#00a3ad;stop-opacity:1" />
            <stop offset="100%" style="stop-color:#39ffbc;stop-opacity:1" />
        </linearGradient>
    </defs>

    <path d="M 400 200 
             C 480 100, 600 100, 650 200 
             C 700 300, 600 380, 400 200 
             C 200 20, 100 100, 150 200 
             C 200 300, 320 300, 400 200 Z" 
          fill="none" stroke="url(#grad1)" stroke-width="32" stroke-linecap="round" />

    <rect x="265" y="175" width="12" height="50" rx="6" fill="#004b7c" />

    <path d="M 515 185 L 540 200 L 515 215 Z" fill="#00a3ad" />

    <g transform="translate(400, 120)">
        <circle cx="0" cy="0" r="14" fill="#02638a" />
        <g id="teeth">
            <rect x="-4" y="-22" width="8" height="8" rx="2" fill="#02638a" transform="rotate(0)"/>
            <rect x="-4" y="-22" width="8" height="8" rx="2" fill="#02638a" transform="rotate(45)"/>
            <rect x="-4" y="-22" width="8" height="8" rx="2" fill="#02638a" transform="rotate(90)"/>
            <rect x="-4" y="-22" width="8" height="8" rx="2" fill="#02638a" transform="rotate(135)"/>
            <rect x="-4" y="-22" width="8" height="8" rx="2" fill="#02638a" transform="rotate(180)"/>
            <rect x="-4" y="-22" width="8" height="8" rx="2" fill="#02638a" transform="rotate(225)"/>
            <rect x="-4" y="-22" width="8" height="8" rx="2" fill="#02638a" transform="rotate(270)"/>
            <rect x="-4" y="-22" width="8" height="8" rx="2" fill="#02638a" transform="rotate(315)"/>
        </g>
        <circle cx="0" cy="0" r="6" fill="white" />
    </g>

    <circle cx="190" cy="270" r="7" fill="#004b7c" />
    <circle cx="610" cy="130" r="7" fill="#39ffbc" />

</svg>
